<mxfile host="app.diagrams.net" modified="2023-05-15T08:23:18.826Z" agent="Mozilla/5.0 (Windows NT 10.0; Win64; x64) AppleWebKit/537.36 (KHTML, like Gecko) Chrome/111.0.0.0 Safari/537.36 OPR/97.0.0.0" etag="RuK7gG5CJJv52Ve_YngG" version="21.3.0" type="github">
  <diagram name="Page-1" id="c4acf3e9-155e-7222-9cf6-157b1a14988f">
    <mxGraphModel dx="2173" dy="1186" grid="1" gridSize="10" guides="1" tooltips="1" connect="1" arrows="1" fold="1" page="1" pageScale="1" pageWidth="1654" pageHeight="1169" background="none" math="0" shadow="0">
      <root>
        <mxCell id="0" />
        <mxCell id="1" parent="0" />
        <mxCell id="KGKXIwvHeCS9UPx8KsFS-3" style="edgeStyle=orthogonalEdgeStyle;rounded=0;orthogonalLoop=1;jettySize=auto;html=1;entryX=0;entryY=0.5;entryDx=0;entryDy=0;endArrow=none;endFill=0;" edge="1" parent="1" source="KGKXIwvHeCS9UPx8KsFS-1" target="KGKXIwvHeCS9UPx8KsFS-2">
          <mxGeometry relative="1" as="geometry" />
        </mxCell>
        <mxCell id="KGKXIwvHeCS9UPx8KsFS-1" value="club" style="swimlane;whiteSpace=wrap;html=1;" vertex="1" parent="1">
          <mxGeometry x="230" y="110" width="200" height="200" as="geometry" />
        </mxCell>
        <mxCell id="KGKXIwvHeCS9UPx8KsFS-2" value="effectif" style="swimlane;whiteSpace=wrap;html=1;" vertex="1" parent="1">
          <mxGeometry x="727" y="110" width="200" height="200" as="geometry" />
        </mxCell>
      </root>
    </mxGraphModel>
  </diagram>
</mxfile>
